<mxfile host="Electron" modified="2023-04-28T04:41:30.518Z" agent="Mozilla/5.0 (Windows NT 10.0; Win64; x64) AppleWebKit/537.36 (KHTML, like Gecko) draw.io/21.1.2 Chrome/106.0.5249.199 Electron/21.4.3 Safari/537.36" etag="ZRsw6wEmiYw52jaEulpG" version="21.1.2" type="device" pages="2">
  <diagram name="Client 1 - Little Fish" id="7wlOJekmVFOGoriwpwjp">
    <mxGraphModel dx="1445" dy="894" grid="0" gridSize="10" guides="1" tooltips="1" connect="1" arrows="1" fold="1" page="1" pageScale="1" pageWidth="1100" pageHeight="850" background="none" math="0" shadow="0">
      <root>
        <mxCell id="0" />
        <mxCell id="1" parent="0" />
        <mxCell id="_F8Qe5t9gO8I4SkWu_tP-3" value="" style="swimlane;startSize=0;" vertex="1" parent="1">
          <mxGeometry x="240" y="145" width="190" height="335" as="geometry" />
        </mxCell>
        <mxCell id="_F8Qe5t9gO8I4SkWu_tP-5" value="Sales Integration Service" style="rounded=0;whiteSpace=wrap;html=1;" vertex="1" parent="1">
          <mxGeometry x="280" y="570" width="120" height="60" as="geometry" />
        </mxCell>
        <mxCell id="_F8Qe5t9gO8I4SkWu_tP-6" value="" style="swimlane;startSize=0;" vertex="1" parent="1">
          <mxGeometry x="480" y="145" width="190" height="335" as="geometry" />
        </mxCell>
        <mxCell id="_F8Qe5t9gO8I4SkWu_tP-7" value="" style="swimlane;startSize=0;" vertex="1" parent="1">
          <mxGeometry x="720" y="145" width="190" height="335" as="geometry" />
        </mxCell>
        <mxCell id="_F8Qe5t9gO8I4SkWu_tP-8" value="Client" style="ellipse;whiteSpace=wrap;html=1;" vertex="1" parent="1">
          <mxGeometry x="40" y="145" width="120" height="80" as="geometry" />
        </mxCell>
        <mxCell id="_F8Qe5t9gO8I4SkWu_tP-9" value="Client" style="ellipse;whiteSpace=wrap;html=1;" vertex="1" parent="1">
          <mxGeometry x="40" y="265" width="120" height="80" as="geometry" />
        </mxCell>
        <mxCell id="_F8Qe5t9gO8I4SkWu_tP-10" value="Client" style="ellipse;whiteSpace=wrap;html=1;" vertex="1" parent="1">
          <mxGeometry x="40" y="385" width="120" height="80" as="geometry" />
        </mxCell>
        <mxCell id="_F8Qe5t9gO8I4SkWu_tP-13" value="Forecasting Service" style="rounded=0;whiteSpace=wrap;html=1;" vertex="1" parent="1">
          <mxGeometry x="577" y="667" width="120" height="60" as="geometry" />
        </mxCell>
        <mxCell id="_F8Qe5t9gO8I4SkWu_tP-14" value="Billing Service" style="rounded=0;whiteSpace=wrap;html=1;" vertex="1" parent="1">
          <mxGeometry x="500" y="570" width="120" height="60" as="geometry" />
        </mxCell>
        <mxCell id="_F8Qe5t9gO8I4SkWu_tP-16" value="Reporting Service" style="rounded=0;whiteSpace=wrap;html=1;" vertex="1" parent="1">
          <mxGeometry x="690" y="570" width="120" height="60" as="geometry" />
        </mxCell>
        <mxCell id="_F8Qe5t9gO8I4SkWu_tP-17" value="Database" style="shape=cylinder3;whiteSpace=wrap;html=1;boundedLbl=1;backgroundOutline=1;size=15;" vertex="1" parent="1">
          <mxGeometry x="860" y="590" width="90" height="120" as="geometry" />
        </mxCell>
        <mxCell id="_F8Qe5t9gO8I4SkWu_tP-12" value="Web Application" style="rounded=0;whiteSpace=wrap;html=1;" vertex="1" parent="1">
          <mxGeometry x="368" y="667" width="120" height="60" as="geometry" />
        </mxCell>
        <mxCell id="7mEANqljR7sT1hKcdQBC-1" value="&lt;font style=&quot;font-size: 14px;&quot;&gt;&lt;b&gt;TODO&lt;/b&gt;: fill in components and connectivity.&lt;/font&gt;" style="text;html=1;strokeColor=none;fillColor=none;align=center;verticalAlign=middle;whiteSpace=wrap;rounded=0;" vertex="1" parent="1">
          <mxGeometry x="280" y="90" width="380" height="30" as="geometry" />
        </mxCell>
      </root>
    </mxGraphModel>
  </diagram>
  <diagram id="q4MsvPV0pNbaK4aQTkzg" name="Client 2 - Big Fish">
    <mxGraphModel dx="1445" dy="894" grid="0" gridSize="10" guides="1" tooltips="1" connect="1" arrows="1" fold="1" page="1" pageScale="1" pageWidth="1100" pageHeight="850" math="0" shadow="0">
      <root>
        <mxCell id="0" />
        <mxCell id="1" parent="0" />
        <mxCell id="xig6c3AcsliQKEWEa3fo-5" value="Client" style="ellipse;whiteSpace=wrap;html=1;" vertex="1" parent="1">
          <mxGeometry x="57" y="343" width="120" height="80" as="geometry" />
        </mxCell>
        <mxCell id="xig6c3AcsliQKEWEa3fo-6" value="Client" style="ellipse;whiteSpace=wrap;html=1;" vertex="1" parent="1">
          <mxGeometry x="57" y="463" width="120" height="80" as="geometry" />
        </mxCell>
        <mxCell id="xig6c3AcsliQKEWEa3fo-7" value="Client" style="ellipse;whiteSpace=wrap;html=1;" vertex="1" parent="1">
          <mxGeometry x="57" y="583" width="120" height="80" as="geometry" />
        </mxCell>
        <mxCell id="xig6c3AcsliQKEWEa3fo-14" value="Client" style="ellipse;whiteSpace=wrap;html=1;" vertex="1" parent="1">
          <mxGeometry x="57" y="688" width="120" height="80" as="geometry" />
        </mxCell>
        <mxCell id="xig6c3AcsliQKEWEa3fo-15" value="Client" style="ellipse;whiteSpace=wrap;html=1;" vertex="1" parent="1">
          <mxGeometry x="107" y="528" width="120" height="80" as="geometry" />
        </mxCell>
        <mxCell id="xig6c3AcsliQKEWEa3fo-16" value="Client" style="ellipse;whiteSpace=wrap;html=1;" vertex="1" parent="1">
          <mxGeometry x="17" y="628" width="120" height="80" as="geometry" />
        </mxCell>
        <mxCell id="xig6c3AcsliQKEWEa3fo-17" value="Client" style="ellipse;whiteSpace=wrap;html=1;" vertex="1" parent="1">
          <mxGeometry x="107" y="648" width="120" height="80" as="geometry" />
        </mxCell>
        <mxCell id="xig6c3AcsliQKEWEa3fo-21" value="Client" style="ellipse;whiteSpace=wrap;html=1;" vertex="1" parent="1">
          <mxGeometry x="127" y="388" width="120" height="80" as="geometry" />
        </mxCell>
        <mxCell id="xig6c3AcsliQKEWEa3fo-22" value="Client" style="ellipse;whiteSpace=wrap;html=1;" vertex="1" parent="1">
          <mxGeometry x="17" y="408" width="110" height="80" as="geometry" />
        </mxCell>
        <mxCell id="xig6c3AcsliQKEWEa3fo-23" value="Client" style="ellipse;whiteSpace=wrap;html=1;" vertex="1" parent="1">
          <mxGeometry x="127" y="438" width="120" height="80" as="geometry" />
        </mxCell>
        <mxCell id="xig6c3AcsliQKEWEa3fo-24" value="Client" style="ellipse;whiteSpace=wrap;html=1;" vertex="1" parent="1">
          <mxGeometry x="27" y="508" width="120" height="80" as="geometry" />
        </mxCell>
        <mxCell id="xig6c3AcsliQKEWEa3fo-35" value="" style="swimlane;startSize=0;" vertex="1" parent="1">
          <mxGeometry x="489" y="383.5" width="146" height="150" as="geometry" />
        </mxCell>
        <mxCell id="xig6c3AcsliQKEWEa3fo-25" value="Web Application" style="rounded=0;whiteSpace=wrap;html=1;" vertex="1" parent="xig6c3AcsliQKEWEa3fo-35">
          <mxGeometry x="11" y="50.5" width="120" height="60" as="geometry" />
        </mxCell>
        <mxCell id="d3qqrTI41BztTa3QQykA-65" value="" style="endArrow=classic;startArrow=classic;html=1;rounded=0;" edge="1" parent="xig6c3AcsliQKEWEa3fo-35" target="d3qqrTI41BztTa3QQykA-24">
          <mxGeometry width="50" height="50" relative="1" as="geometry">
            <mxPoint x="79" y="51.25" as="sourcePoint" />
            <mxPoint x="129" y="1.25" as="targetPoint" />
          </mxGeometry>
        </mxCell>
        <mxCell id="xig6c3AcsliQKEWEa3fo-36" value="" style="swimlane;startSize=0;" vertex="1" parent="1">
          <mxGeometry x="788" y="49" width="190" height="187.5" as="geometry" />
        </mxCell>
        <mxCell id="xig6c3AcsliQKEWEa3fo-42" value="Database" style="shape=cylinder3;whiteSpace=wrap;html=1;boundedLbl=1;backgroundOutline=1;size=15;" vertex="1" parent="xig6c3AcsliQKEWEa3fo-36">
          <mxGeometry x="50" y="33.75" width="90" height="120" as="geometry" />
        </mxCell>
        <mxCell id="d3qqrTI41BztTa3QQykA-38" value="" style="endArrow=classic;startArrow=classic;html=1;rounded=0;entryX=0.5;entryY=1;entryDx=0;entryDy=0;entryPerimeter=0;" edge="1" parent="xig6c3AcsliQKEWEa3fo-36">
          <mxGeometry width="50" height="50" relative="1" as="geometry">
            <mxPoint x="94.5" y="233.25" as="sourcePoint" />
            <mxPoint x="94.5" y="156.25" as="targetPoint" />
          </mxGeometry>
        </mxCell>
        <mxCell id="xig6c3AcsliQKEWEa3fo-37" value="" style="swimlane;startSize=0;" vertex="1" parent="1">
          <mxGeometry x="568" y="49" width="190" height="187.5" as="geometry" />
        </mxCell>
        <mxCell id="xig6c3AcsliQKEWEa3fo-30" value="Database" style="shape=cylinder3;whiteSpace=wrap;html=1;boundedLbl=1;backgroundOutline=1;size=15;" vertex="1" parent="xig6c3AcsliQKEWEa3fo-37">
          <mxGeometry x="40" y="37.5" width="90" height="120" as="geometry" />
        </mxCell>
        <mxCell id="xig6c3AcsliQKEWEa3fo-39" value="" style="swimlane;startSize=0;" vertex="1" parent="1">
          <mxGeometry x="153" y="159" width="170" height="140" as="geometry" />
        </mxCell>
        <mxCell id="xig6c3AcsliQKEWEa3fo-57" value="Forecasting Service" style="rounded=0;whiteSpace=wrap;html=1;" vertex="1" parent="xig6c3AcsliQKEWEa3fo-39">
          <mxGeometry x="28" y="73" width="120" height="60" as="geometry" />
        </mxCell>
        <mxCell id="xig6c3AcsliQKEWEa3fo-56" value="Forecasting Service" style="rounded=0;whiteSpace=wrap;html=1;" vertex="1" parent="xig6c3AcsliQKEWEa3fo-39">
          <mxGeometry x="28" y="5" width="120" height="60" as="geometry" />
        </mxCell>
        <mxCell id="xig6c3AcsliQKEWEa3fo-40" value="" style="swimlane;startSize=0;" vertex="1" parent="1">
          <mxGeometry x="754.5" y="556" width="177.5" height="200" as="geometry" />
        </mxCell>
        <mxCell id="xig6c3AcsliQKEWEa3fo-54" value="Reporting Service" style="rounded=0;whiteSpace=wrap;html=1;" vertex="1" parent="xig6c3AcsliQKEWEa3fo-40">
          <mxGeometry x="33.5" y="28" width="120" height="60" as="geometry" />
        </mxCell>
        <mxCell id="d3qqrTI41BztTa3QQykA-73" value="" style="endArrow=classic;startArrow=classic;html=1;rounded=0;entryX=0.008;entryY=0.621;entryDx=0;entryDy=0;entryPerimeter=0;" edge="1" parent="xig6c3AcsliQKEWEa3fo-40">
          <mxGeometry width="50" height="50" relative="1" as="geometry">
            <mxPoint x="-60" y="139" as="sourcePoint" />
            <mxPoint x="35" y="139" as="targetPoint" />
          </mxGeometry>
        </mxCell>
        <mxCell id="xig6c3AcsliQKEWEa3fo-2" value="Sales Integration Service" style="rounded=0;whiteSpace=wrap;html=1;" vertex="1" parent="xig6c3AcsliQKEWEa3fo-40">
          <mxGeometry x="35" y="115" width="120" height="60" as="geometry" />
        </mxCell>
        <mxCell id="xig6c3AcsliQKEWEa3fo-52" value="" style="swimlane;startSize=0;" vertex="1" parent="1">
          <mxGeometry x="749" y="353.5" width="178" height="187.5" as="geometry" />
        </mxCell>
        <mxCell id="xig6c3AcsliQKEWEa3fo-12" value="Reporting Service" style="rounded=0;whiteSpace=wrap;html=1;" vertex="1" parent="xig6c3AcsliQKEWEa3fo-52">
          <mxGeometry x="35" y="26.25" width="113" height="60" as="geometry" />
        </mxCell>
        <mxCell id="xig6c3AcsliQKEWEa3fo-53" value="Billing Service" style="rounded=0;whiteSpace=wrap;html=1;" vertex="1" parent="xig6c3AcsliQKEWEa3fo-52">
          <mxGeometry x="30" y="110" width="120" height="60" as="geometry" />
        </mxCell>
        <mxCell id="d3qqrTI41BztTa3QQykA-4" value="Load Balancer" style="ellipse;shape=cloud;whiteSpace=wrap;html=1;" vertex="1" parent="1">
          <mxGeometry x="306" y="457" width="120" height="80" as="geometry" />
        </mxCell>
        <mxCell id="d3qqrTI41BztTa3QQykA-19" value="" style="line;strokeWidth=4;direction=south;html=1;perimeter=backbonePerimeter;points=[];outlineConnect=0;" vertex="1" parent="1">
          <mxGeometry x="286" y="329" width="10" height="401" as="geometry" />
        </mxCell>
        <mxCell id="d3qqrTI41BztTa3QQykA-20" value="" style="swimlane;startSize=0;" vertex="1" parent="1">
          <mxGeometry x="487" y="562.25" width="146" height="150" as="geometry" />
        </mxCell>
        <mxCell id="d3qqrTI41BztTa3QQykA-21" value="Web Application" style="rounded=0;whiteSpace=wrap;html=1;" vertex="1" parent="d3qqrTI41BztTa3QQykA-20">
          <mxGeometry x="15" y="50.75" width="120" height="60" as="geometry" />
        </mxCell>
        <mxCell id="d3qqrTI41BztTa3QQykA-23" value="" style="line;strokeWidth=4;direction=south;html=1;perimeter=backbonePerimeter;points=[];outlineConnect=0;fontStyle=1" vertex="1" parent="1">
          <mxGeometry x="684" y="383.5" width="10" height="345.5" as="geometry" />
        </mxCell>
        <mxCell id="d3qqrTI41BztTa3QQykA-24" value="" style="line;strokeWidth=4;html=1;perimeter=backbonePerimeter;points=[];outlineConnect=0;" vertex="1" parent="1">
          <mxGeometry x="541" y="281" width="512" height="10" as="geometry" />
        </mxCell>
        <mxCell id="d3qqrTI41BztTa3QQykA-27" value="" style="line;strokeWidth=4;direction=south;html=1;perimeter=backbonePerimeter;points=[];outlineConnect=0;" vertex="1" parent="1">
          <mxGeometry x="441" y="323" width="10" height="401" as="geometry" />
        </mxCell>
        <mxCell id="d3qqrTI41BztTa3QQykA-32" value="" style="line;strokeWidth=4;direction=south;html=1;perimeter=backbonePerimeter;points=[];outlineConnect=0;fontStyle=1" vertex="1" parent="1">
          <mxGeometry x="468" y="29" width="10" height="252" as="geometry" />
        </mxCell>
        <mxCell id="d3qqrTI41BztTa3QQykA-37" value="" style="endArrow=classic;startArrow=classic;html=1;rounded=0;entryX=0.5;entryY=1;entryDx=0;entryDy=0;entryPerimeter=0;" edge="1" parent="1" source="d3qqrTI41BztTa3QQykA-24" target="xig6c3AcsliQKEWEa3fo-30">
          <mxGeometry width="50" height="50" relative="1" as="geometry">
            <mxPoint x="626" y="408" as="sourcePoint" />
            <mxPoint x="676" y="358" as="targetPoint" />
          </mxGeometry>
        </mxCell>
        <mxCell id="d3qqrTI41BztTa3QQykA-40" value="" style="swimlane;startSize=0;" vertex="1" parent="1">
          <mxGeometry x="153" y="15" width="170" height="140" as="geometry" />
        </mxCell>
        <mxCell id="d3qqrTI41BztTa3QQykA-41" value="Forecasting Service" style="rounded=0;whiteSpace=wrap;html=1;" vertex="1" parent="d3qqrTI41BztTa3QQykA-40">
          <mxGeometry x="28" y="73" width="120" height="60" as="geometry" />
        </mxCell>
        <mxCell id="d3qqrTI41BztTa3QQykA-42" value="Forecasting Service" style="rounded=0;whiteSpace=wrap;html=1;" vertex="1" parent="d3qqrTI41BztTa3QQykA-40">
          <mxGeometry x="28" y="5" width="120" height="60" as="geometry" />
        </mxCell>
        <mxCell id="d3qqrTI41BztTa3QQykA-46" value="" style="endArrow=classic;startArrow=classic;html=1;rounded=0;exitX=1;exitY=0.5;exitDx=0;exitDy=0;" edge="1" parent="1" source="d3qqrTI41BztTa3QQykA-42" target="d3qqrTI41BztTa3QQykA-32">
          <mxGeometry width="50" height="50" relative="1" as="geometry">
            <mxPoint x="626" y="408" as="sourcePoint" />
            <mxPoint x="676" y="358" as="targetPoint" />
          </mxGeometry>
        </mxCell>
        <mxCell id="d3qqrTI41BztTa3QQykA-47" value="" style="endArrow=classic;startArrow=classic;html=1;rounded=0;exitX=1;exitY=0.5;exitDx=0;exitDy=0;" edge="1" parent="1">
          <mxGeometry width="50" height="50" relative="1" as="geometry">
            <mxPoint x="300" y="119" as="sourcePoint" />
            <mxPoint x="469" y="119" as="targetPoint" />
          </mxGeometry>
        </mxCell>
        <mxCell id="d3qqrTI41BztTa3QQykA-48" value="" style="endArrow=classic;startArrow=classic;html=1;rounded=0;exitX=1;exitY=0.5;exitDx=0;exitDy=0;" edge="1" parent="1">
          <mxGeometry width="50" height="50" relative="1" as="geometry">
            <mxPoint x="298" y="193" as="sourcePoint" />
            <mxPoint x="467" y="193" as="targetPoint" />
          </mxGeometry>
        </mxCell>
        <mxCell id="d3qqrTI41BztTa3QQykA-49" value="" style="endArrow=classic;startArrow=classic;html=1;rounded=0;exitX=1;exitY=0.5;exitDx=0;exitDy=0;" edge="1" parent="1">
          <mxGeometry width="50" height="50" relative="1" as="geometry">
            <mxPoint x="296" y="249" as="sourcePoint" />
            <mxPoint x="465" y="249" as="targetPoint" />
          </mxGeometry>
        </mxCell>
        <mxCell id="d3qqrTI41BztTa3QQykA-50" value="" style="endArrow=classic;startArrow=classic;html=1;rounded=0;" edge="1" parent="1" target="d3qqrTI41BztTa3QQykA-24">
          <mxGeometry width="50" height="50" relative="1" as="geometry">
            <mxPoint x="472" y="214" as="sourcePoint" />
            <mxPoint x="522" y="164" as="targetPoint" />
            <Array as="points">
              <mxPoint x="498" y="214" />
              <mxPoint x="498" y="328" />
              <mxPoint x="555" y="328" />
            </Array>
          </mxGeometry>
        </mxCell>
        <mxCell id="d3qqrTI41BztTa3QQykA-51" value="" style="endArrow=classic;startArrow=classic;html=1;rounded=0;exitX=1;exitY=0.5;exitDx=0;exitDy=0;" edge="1" parent="1" source="xig6c3AcsliQKEWEa3fo-21" target="d3qqrTI41BztTa3QQykA-19">
          <mxGeometry width="50" height="50" relative="1" as="geometry">
            <mxPoint x="626" y="408" as="sourcePoint" />
            <mxPoint x="676" y="358" as="targetPoint" />
          </mxGeometry>
        </mxCell>
        <mxCell id="d3qqrTI41BztTa3QQykA-52" value="" style="endArrow=classic;startArrow=classic;html=1;rounded=0;exitX=1;exitY=0.5;exitDx=0;exitDy=0;" edge="1" parent="1">
          <mxGeometry width="50" height="50" relative="1" as="geometry">
            <mxPoint x="241" y="683" as="sourcePoint" />
            <mxPoint x="283" y="683" as="targetPoint" />
          </mxGeometry>
        </mxCell>
        <mxCell id="d3qqrTI41BztTa3QQykA-55" value="" style="endArrow=classic;startArrow=classic;html=1;rounded=0;exitX=1;exitY=0.5;exitDx=0;exitDy=0;" edge="1" parent="1">
          <mxGeometry width="50" height="50" relative="1" as="geometry">
            <mxPoint x="240" y="514" as="sourcePoint" />
            <mxPoint x="282" y="514" as="targetPoint" />
          </mxGeometry>
        </mxCell>
        <mxCell id="d3qqrTI41BztTa3QQykA-58" value="" style="endArrow=classic;startArrow=classic;html=1;rounded=0;exitX=1;exitY=0.5;exitDx=0;exitDy=0;" edge="1" parent="1">
          <mxGeometry width="50" height="50" relative="1" as="geometry">
            <mxPoint x="240" y="567.5" as="sourcePoint" />
            <mxPoint x="282" y="567.5" as="targetPoint" />
          </mxGeometry>
        </mxCell>
        <mxCell id="d3qqrTI41BztTa3QQykA-59" value="" style="endArrow=classic;startArrow=classic;html=1;rounded=0;exitX=1;exitY=0.5;exitDx=0;exitDy=0;" edge="1" parent="1">
          <mxGeometry width="50" height="50" relative="1" as="geometry">
            <mxPoint x="240" y="618" as="sourcePoint" />
            <mxPoint x="282" y="618" as="targetPoint" />
          </mxGeometry>
        </mxCell>
        <mxCell id="d3qqrTI41BztTa3QQykA-60" value="" style="endArrow=classic;startArrow=classic;html=1;rounded=0;exitX=1;exitY=0.5;exitDx=0;exitDy=0;" edge="1" parent="1">
          <mxGeometry width="50" height="50" relative="1" as="geometry">
            <mxPoint x="286" y="502.5" as="sourcePoint" />
            <mxPoint x="315" y="503" as="targetPoint" />
          </mxGeometry>
        </mxCell>
        <mxCell id="d3qqrTI41BztTa3QQykA-61" value="" style="endArrow=classic;startArrow=classic;html=1;rounded=0;" edge="1" parent="1">
          <mxGeometry width="50" height="50" relative="1" as="geometry">
            <mxPoint x="414" y="495" as="sourcePoint" />
            <mxPoint x="447" y="495" as="targetPoint" />
          </mxGeometry>
        </mxCell>
        <mxCell id="d3qqrTI41BztTa3QQykA-63" value="" style="endArrow=classic;startArrow=classic;html=1;rounded=0;" edge="1" parent="1" source="d3qqrTI41BztTa3QQykA-27">
          <mxGeometry width="50" height="50" relative="1" as="geometry">
            <mxPoint x="468" y="465" as="sourcePoint" />
            <mxPoint x="501" y="465" as="targetPoint" />
          </mxGeometry>
        </mxCell>
        <mxCell id="d3qqrTI41BztTa3QQykA-64" value="" style="endArrow=classic;startArrow=classic;html=1;rounded=0;" edge="1" parent="1">
          <mxGeometry width="50" height="50" relative="1" as="geometry">
            <mxPoint x="449" y="645" as="sourcePoint" />
            <mxPoint x="503" y="645" as="targetPoint" />
          </mxGeometry>
        </mxCell>
        <mxCell id="d3qqrTI41BztTa3QQykA-66" value="" style="endArrow=classic;startArrow=classic;html=1;rounded=0;exitX=1;exitY=0.25;exitDx=0;exitDy=0;" edge="1" parent="1" source="d3qqrTI41BztTa3QQykA-21" target="d3qqrTI41BztTa3QQykA-24">
          <mxGeometry width="50" height="50" relative="1" as="geometry">
            <mxPoint x="611" y="614" as="sourcePoint" />
            <mxPoint x="661" y="564" as="targetPoint" />
            <Array as="points">
              <mxPoint x="653" y="628" />
            </Array>
          </mxGeometry>
        </mxCell>
        <mxCell id="d3qqrTI41BztTa3QQykA-68" value="" style="endArrow=classic;startArrow=classic;html=1;rounded=0;exitX=1;exitY=0.5;exitDx=0;exitDy=0;" edge="1" parent="1" source="xig6c3AcsliQKEWEa3fo-25" target="d3qqrTI41BztTa3QQykA-23">
          <mxGeometry width="50" height="50" relative="1" as="geometry">
            <mxPoint x="626" y="408" as="sourcePoint" />
            <mxPoint x="676" y="358" as="targetPoint" />
          </mxGeometry>
        </mxCell>
        <mxCell id="d3qqrTI41BztTa3QQykA-69" value="" style="endArrow=classic;startArrow=classic;html=1;rounded=0;exitX=1;exitY=0.5;exitDx=0;exitDy=0;" edge="1" parent="1">
          <mxGeometry width="50" height="50" relative="1" as="geometry">
            <mxPoint x="620" y="643" as="sourcePoint" />
            <mxPoint x="687" y="643" as="targetPoint" />
          </mxGeometry>
        </mxCell>
        <mxCell id="d3qqrTI41BztTa3QQykA-70" value="" style="endArrow=classic;startArrow=classic;html=1;rounded=0;entryX=0.008;entryY=0.621;entryDx=0;entryDy=0;entryPerimeter=0;" edge="1" parent="1" source="d3qqrTI41BztTa3QQykA-23" target="xig6c3AcsliQKEWEa3fo-12">
          <mxGeometry width="50" height="50" relative="1" as="geometry">
            <mxPoint x="729" y="462" as="sourcePoint" />
            <mxPoint x="779" y="412" as="targetPoint" />
          </mxGeometry>
        </mxCell>
        <mxCell id="d3qqrTI41BztTa3QQykA-71" value="" style="endArrow=classic;startArrow=classic;html=1;rounded=0;entryX=0.008;entryY=0.621;entryDx=0;entryDy=0;entryPerimeter=0;" edge="1" parent="1">
          <mxGeometry width="50" height="50" relative="1" as="geometry">
            <mxPoint x="686" y="493" as="sourcePoint" />
            <mxPoint x="781" y="493" as="targetPoint" />
          </mxGeometry>
        </mxCell>
        <mxCell id="d3qqrTI41BztTa3QQykA-72" value="" style="endArrow=classic;startArrow=classic;html=1;rounded=0;entryX=0.008;entryY=0.621;entryDx=0;entryDy=0;entryPerimeter=0;" edge="1" parent="1">
          <mxGeometry width="50" height="50" relative="1" as="geometry">
            <mxPoint x="690" y="611" as="sourcePoint" />
            <mxPoint x="785" y="611" as="targetPoint" />
          </mxGeometry>
        </mxCell>
        <mxCell id="d3qqrTI41BztTa3QQykA-78" value="" style="line;strokeWidth=4;direction=south;html=1;perimeter=backbonePerimeter;points=[];outlineConnect=0;fontStyle=1" vertex="1" parent="1">
          <mxGeometry x="994" y="383.5" width="10" height="345.5" as="geometry" />
        </mxCell>
        <mxCell id="d3qqrTI41BztTa3QQykA-79" value="" style="endArrow=classic;startArrow=classic;html=1;rounded=0;exitX=1;exitY=0.5;exitDx=0;exitDy=0;" edge="1" parent="1" source="xig6c3AcsliQKEWEa3fo-12" target="d3qqrTI41BztTa3QQykA-78">
          <mxGeometry width="50" height="50" relative="1" as="geometry">
            <mxPoint x="626" y="408" as="sourcePoint" />
            <mxPoint x="676" y="358" as="targetPoint" />
          </mxGeometry>
        </mxCell>
        <mxCell id="d3qqrTI41BztTa3QQykA-80" value="" style="endArrow=classic;startArrow=classic;html=1;rounded=0;exitX=1;exitY=0.5;exitDx=0;exitDy=0;" edge="1" parent="1">
          <mxGeometry width="50" height="50" relative="1" as="geometry">
            <mxPoint x="899" y="496.5" as="sourcePoint" />
            <mxPoint x="999" y="496.5" as="targetPoint" />
          </mxGeometry>
        </mxCell>
        <mxCell id="d3qqrTI41BztTa3QQykA-81" value="" style="endArrow=classic;startArrow=classic;html=1;rounded=0;exitX=1;exitY=0.5;exitDx=0;exitDy=0;" edge="1" parent="1">
          <mxGeometry width="50" height="50" relative="1" as="geometry">
            <mxPoint x="904" y="611" as="sourcePoint" />
            <mxPoint x="1004" y="611" as="targetPoint" />
          </mxGeometry>
        </mxCell>
        <mxCell id="d3qqrTI41BztTa3QQykA-82" value="" style="endArrow=classic;startArrow=classic;html=1;rounded=0;exitX=1;exitY=0.5;exitDx=0;exitDy=0;" edge="1" parent="1">
          <mxGeometry width="50" height="50" relative="1" as="geometry">
            <mxPoint x="908" y="696" as="sourcePoint" />
            <mxPoint x="992" y="696" as="targetPoint" />
          </mxGeometry>
        </mxCell>
        <mxCell id="d3qqrTI41BztTa3QQykA-84" value="" style="endArrow=classic;startArrow=classic;html=1;rounded=0;" edge="1" parent="1" target="d3qqrTI41BztTa3QQykA-24">
          <mxGeometry width="50" height="50" relative="1" as="geometry">
            <mxPoint x="1000" y="551" as="sourcePoint" />
            <mxPoint x="1041" y="352" as="targetPoint" />
            <Array as="points">
              <mxPoint x="1033" y="551" />
            </Array>
          </mxGeometry>
        </mxCell>
      </root>
    </mxGraphModel>
  </diagram>
</mxfile>
